<svg xmlns="http://www.w3.org/2000/svg" viewBox="0 0 39.39 39.39"><defs><style>.cls-1{fill:#231815;}.cls-2{fill:none;stroke:#231815;stroke-miterlimit:10;stroke-width:0.86px;}</style></defs><title>btn_language_en_b</title><g id="レイヤー_2" data-name="レイヤー 2"><g id="レイヤー_1-2" data-name="レイヤー 1"><path class="cls-1" d="M7.92,25.69c.49-.1.67-.36.83-1.09.2-.88,1.37-8.07,1.43-8.83s0-.91-.42-1a7.43,7.43,0,0,0-1.17-.2c-.08-.08,0-.52.1-.56.4,0,1.59.06,2.68.06h3.72a12.72,12.72,0,0,0,2.27-.12.3.3,0,0,1,.06.14,22.25,22.25,0,0,0-.62,2.75.89.89,0,0,1-.64,0,7.21,7.21,0,0,0-.1-1.28c-.09-.53-.29-.69-1-.75a27.28,27.28,0,0,0-2.86,0,.51.51,0,0,0-.3.34c-.2,1.13-.5,3-.73,4.45,0,.08,0,.12.09.12,1,0,2.13,0,2.81,0A1,1,0,0,0,15,19a7.13,7.13,0,0,0,.32-.79.84.84,0,0,1,.66,0c-.1.39-.3,1.25-.42,1.9s-.2,1.42-.28,2a.88.88,0,0,1-.6,0,6.11,6.11,0,0,0-.08-.87c0-.42-.21-.66-.57-.7-.62-.06-2-.06-2.84-.06,0,0-.12.08-.14.14C10.8,22,10.48,24,10.38,25c0,.3.08.52.28.58a29.83,29.83,0,0,0,3.22.08,1.85,1.85,0,0,0,1.53-.6,9.92,9.92,0,0,0,1.21-1.71.89.89,0,0,1,.52.24A10.79,10.79,0,0,1,16,26.09a.92.92,0,0,1-.79.39c-1.63,0-2.94-.07-5.86-.07-1.37,0-2.27.07-2.87.07a.65.65,0,0,1,.06-.59A8,8,0,0,0,7.92,25.69Z"/><path class="cls-1" d="M20.21,14C21,14,22,14,22.83,14a6,6,0,0,0,.64,0,4.85,4.85,0,0,0,.56,1.1c1.53,2.62,4.55,7.83,5.32,9a.1.1,0,0,0,.08,0c.36-2.21,1.1-6.86,1.22-8.25,0-.59,0-.95-.62-1.11-.36-.08-.76-.14-1.23-.22-.06-.1,0-.56.1-.58.47,0,1.51.08,2.56.08.7,0,1.75-.08,2-.08a.83.83,0,0,1-.08.58,6.75,6.75,0,0,0-.84.18c-.57.16-.75.54-.87,1.09-.34,1.55-.92,5.19-1.39,8-.14.88-.3,2-.4,2.74-.1,0-.38,0-.68,0s-.57,0-.65,0c-.84-1.63-4.37-7.87-5.77-10.21,0,0-.09,0-.11,0-.32,2-1.06,7-1.2,8.15-.08.77.08,1,.58,1.15a10.34,10.34,0,0,0,1.23.24,1,1,0,0,1-.08.59c-.71,0-1.45-.09-2.48-.09s-2,.09-2.51.09a1,1,0,0,1,.08-.59,12,12,0,0,0,1.2-.22c.55-.14.75-.48.91-1.17.26-1.06,1.07-5.71,1.53-8.63a1.06,1.06,0,0,0-.34-1,3.84,3.84,0,0,0-1.55-.4A1,1,0,0,1,20.21,14Z"/><circle class="cls-2" cx="19.69" cy="19.69" r="19.26"/></g></g></svg>