<svg xmlns="http://www.w3.org/2000/svg" viewBox="0 0 48.83 48.83"><defs><style>.cls-1{fill:#231815;}.cls-2{fill:none;stroke:#231815;stroke-miterlimit:10;stroke-width:1.33px;}</style></defs><g id="レイヤー_2" data-name="レイヤー 2"><g id="レイヤー_1-2" data-name="レイヤー 1"><path class="cls-1" d="M16,17.36c.77,0,1.54.07,3.11.07s2.43-.07,3-.07c.1.1,0,.6-.08.72-.52.07-.94.15-1.24.22a1.17,1.17,0,0,0-.77,1c-.2,1-1.39,8.77-1.81,11.07A12.64,12.64,0,0,1,16.72,35a7.89,7.89,0,0,1-4.29,3.25,1.18,1.18,0,0,1-.45-.55.24.24,0,0,1,0-.17,5.92,5.92,0,0,0,2.43-1.71c.73-.8,1-2,1.45-4.05.64-3.2,1.83-10.87,1.93-12.14.08-.82.08-1.17-.52-1.37a8.81,8.81,0,0,0-1.44-.22A.91.91,0,0,1,16,17.36Z"/><path class="cls-1" d="M27.47,26.67s-.15,0-.15.15c-.22,1.49-.5,3.23-.57,3.87s.1,1,.77,1.14c.35.08.87.15,1.44.23a1.21,1.21,0,0,1-.13.72c-.69,0-1.76-.08-3.12-.08-1.79,0-3,.08-3.55.08a1.33,1.33,0,0,1,.05-.72c.64-.08,1.09-.13,1.41-.2.52-.13.89-.32,1.09-1.32.4-2,1.54-9.08,1.79-11,.12-.84-.05-1.17-.64-1.32-.33-.07-.85-.12-1.32-.17a1.11,1.11,0,0,1,.12-.72c.43,0,2.24.07,3,.07,1.22,0,2,0,3.3,0,2.21,0,4.47,1.09,4.47,4.05a5.08,5.08,0,0,1-3.15,4.74,7.64,7.64,0,0,1-3.33.59C28.56,26.79,27.87,26.72,27.47,26.67Zm5.81-5.09c0-2-1.12-3.33-3.48-3.33a2.63,2.63,0,0,0-.87.13.54.54,0,0,0-.24.35c-.2,1-.7,3.84-1.17,6.87a.19.19,0,0,0,.15.2,5.86,5.86,0,0,0,1.34.1C32,25.9,33.25,24,33.28,21.58Z"/><circle class="cls-2" cx="24.42" cy="24.42" r="23.75"/></g></g></svg>