<svg xmlns="http://www.w3.org/2000/svg" viewBox="0 0 22.81 22.81"><defs><style>.cls-1{fill:#fff;}.cls-2{fill:none;stroke:#fff;stroke-miterlimit:10;stroke-width:0.5px;}</style></defs><title>btn_language_en</title><g id="レイヤー_2" data-name="レイヤー 2"><g id="レイヤー_1-2" data-name="レイヤー 1"><path class="cls-1" d="M4.57,14.88c.28-.06.38-.21.48-.63s.79-4.68.82-5.12,0-.53-.24-.6A4.56,4.56,0,0,0,5,8.42c0-.05,0-.31.06-.33.23,0,.92,0,1.55,0H8.72A7.39,7.39,0,0,0,10,8.06a.15.15,0,0,1,0,.08,11.47,11.47,0,0,0-.36,1.6.67.67,0,0,1-.37,0A4.83,4.83,0,0,0,9.28,9c0-.3-.17-.4-.56-.43a15.32,15.32,0,0,0-1.66,0c-.09,0-.15.13-.17.2-.12.65-.29,1.75-.42,2.57,0,.05,0,.07,0,.07H8.15A.58.58,0,0,0,8.64,11c0-.13.12-.28.18-.46a.58.58,0,0,1,.39,0c-.06.23-.18.73-.25,1.1s-.11.83-.16,1.15a.47.47,0,0,1-.35,0,2.73,2.73,0,0,0,0-.5c0-.24-.11-.38-.32-.4-.36,0-1.16,0-1.65,0,0,0-.07,0-.08.08-.11.75-.3,2-.36,2.51a.31.31,0,0,0,.16.34c.21,0,1,0,1.87,0a1,1,0,0,0,.88-.35,4.8,4.8,0,0,0,.7-1,.55.55,0,0,1,.31.14,6.77,6.77,0,0,1-.64,1.46.53.53,0,0,1-.46.22c-.94,0-1.7,0-3.39,0-.79,0-1.32,0-1.67,0a.41.41,0,0,1,0-.34A5.18,5.18,0,0,0,4.57,14.88Z"/><path class="cls-1" d="M11.72,8.09c.45,0,1.06,0,1.52,0a2.06,2.06,0,0,0,.37,0,2.84,2.84,0,0,0,.33.65c.88,1.51,2.63,4.53,3.07,5.23a.06.06,0,0,0,0,0c.21-1.29.64-4,.71-4.78,0-.34,0-.55-.36-.64s-.44-.09-.71-.13c0-.06,0-.33.06-.34.27,0,.87.05,1.48.05.41,0,1-.05,1.19-.05a.5.5,0,0,1-.05.34,4.19,4.19,0,0,0-.49.1.72.72,0,0,0-.5.63c-.2.9-.54,3-.8,4.64-.09.52-.18,1.17-.24,1.59-.06,0-.22,0-.39,0a3.47,3.47,0,0,0-.38,0c-.49-1-2.53-4.56-3.34-5.91,0,0-.05,0-.06,0-.19,1.14-.62,4-.7,4.72-.05.44,0,.59.34.66a4.44,4.44,0,0,0,.71.14.57.57,0,0,1,0,.34c-.41,0-.84,0-1.43,0s-1.16,0-1.46,0a.57.57,0,0,1,.05-.34c.24,0,.52-.08.7-.12s.43-.28.52-.68c.15-.62.62-3.31.89-5a.61.61,0,0,0-.2-.55,2.38,2.38,0,0,0-.9-.23A.7.7,0,0,1,11.72,8.09Z"/><circle class="cls-2" cx="11.4" cy="11.4" r="11.15"/></g></g></svg>