<svg xmlns="http://www.w3.org/2000/svg" viewBox="0 0 48.74 48.74"><defs><style>.cls-1{fill:#fff;}.cls-2{fill:none;stroke:#fff;stroke-miterlimit:10;stroke-width:1.32px;}</style></defs><g id="レイヤー_2" data-name="レイヤー 2"><g id="レイヤー_1-2" data-name="レイヤー 1"><path class="cls-1" d="M16,17.33c.76,0,1.53.07,3.09.07s2.43-.07,3-.07c.1.1,0,.59-.08.72-.52.07-.94.15-1.24.22a1.16,1.16,0,0,0-.77,1c-.19,1-1.38,8.74-1.8,11.05A12.71,12.71,0,0,1,16.69,35a7.84,7.84,0,0,1-4.28,3.25,1.13,1.13,0,0,1-.45-.55.24.24,0,0,1,0-.17,6,6,0,0,0,2.43-1.71c.72-.79,1-2,1.44-4,.64-3.2,1.83-10.85,1.93-12.12.07-.81.07-1.16-.52-1.36a8.81,8.81,0,0,0-1.44-.22A.87.87,0,0,1,16,17.33Z"/><path class="cls-1" d="M27.42,26.62s-.15.05-.15.15c-.22,1.49-.5,3.22-.57,3.86s.1,1,.77,1.15c.34.07.86.14,1.43.22a1.2,1.2,0,0,1-.12.72c-.69,0-1.76-.08-3.12-.08-1.79,0-3,.08-3.55.08a1.43,1.43,0,0,1,.05-.72c.65-.08,1.09-.13,1.42-.2.52-.12.89-.32,1.09-1.31.39-2,1.53-9.07,1.78-11,.13-.84-.05-1.16-.64-1.31-.33-.07-.85-.12-1.32-.17a1.09,1.09,0,0,1,.13-.72c.42,0,2.23.07,3,.07,1.21,0,2,0,3.3,0,2.2,0,4.46,1.09,4.46,4a5.07,5.07,0,0,1-3.15,4.73,7.62,7.62,0,0,1-3.32.59C28.51,26.74,27.81,26.67,27.42,26.62Zm5.8-5.08c0-2-1.12-3.32-3.47-3.32a2.61,2.61,0,0,0-.87.12.57.57,0,0,0-.25.35c-.2,1-.69,3.84-1.16,6.87a.18.18,0,0,0,.15.19,5.82,5.82,0,0,0,1.33.1C32,25.85,33.19,24,33.22,21.54Z"/><circle class="cls-2" cx="24.37" cy="24.37" r="23.71"/></g></g></svg>