<svg xmlns="http://www.w3.org/2000/svg" viewBox="0 0 36.48 25.7"><defs><style>.cls-1{fill:#fff;}</style></defs><title>icn_youtube</title><g id="レイヤー_2" data-name="レイヤー 2"><g id="レイヤー_1-2" data-name="レイヤー 1"><path class="cls-1" d="M35.72,4A4.58,4.58,0,0,0,32.49.77C29.65,0,18.24,0,18.24,0S6.83,0,4,.77A4.58,4.58,0,0,0,.76,4C0,6.88,0,12.85,0,12.85s0,6,.76,8.84A4.61,4.61,0,0,0,4,24.94c2.84.76,14.25.76,14.25.76s11.41,0,14.25-.76a4.61,4.61,0,0,0,3.23-3.25c.76-2.86.76-8.84.76-8.84S36.48,6.88,35.72,4ZM14.51,18.28V7.43L24,12.85Z"/></g></g></svg>