<svg xmlns="http://www.w3.org/2000/svg" viewBox="0 0 293.72 56.89"><defs><style>.cls-1{fill:#231815;}</style></defs><title>img_logo_b</title><g id="レイヤー_2" data-name="レイヤー 2"><g id="レイヤー_1-2" data-name="レイヤー 1"><path class="cls-1" d="M0,28.44,25.41,53.85l3,3V28.44H15.52c4.79,1.3,9.89,3.28,9.89,14.31v7L4.08,28.44,25.41,7.12V26.23h3V0l-3,3Z"/><path class="cls-1" d="M33.44,28.44V7.1L52.57,26.23h4.08L33.44,3l-3-3V56.89l3-3L55.69,31.62l3.17-3.18Zm0,21.34V31.62H51.61Z"/><path class="cls-1" d="M88,29.1a6.37,6.37,0,0,0-1.32.16,1.24,1.24,0,0,0-1,1.42v4.86c0,.42.23.54,1.1.74V37a25.18,25.18,0,0,1-7.44,1.29c-3.6,0-6.53-1.09-8.49-3.15A10.9,10.9,0,0,1,68,27.2a10.47,10.47,0,0,1,4.12-8.59,11.12,11.12,0,0,1,7-2.16,13.57,13.57,0,0,1,5.06.93,7.72,7.72,0,0,0,1-.64h.7a45.63,45.63,0,0,0,.81,6.37l-.9.26c-.94-2.28-1.84-4-3.54-5a7.41,7.41,0,0,0-3.45-.83c-3.76,0-7.4,2.35-7.4,9.49a11.27,11.27,0,0,0,2.51,7.69,7.17,7.17,0,0,0,5.44,2.39,5.53,5.53,0,0,0,2.28-.39,1.38,1.38,0,0,0,.91-1.51V30.77a1.27,1.27,0,0,0-1.13-1.41,10.75,10.75,0,0,0-2.22-.29v-1H88Z"/><path class="cls-1" d="M90.26,37.73v-1c2-.13,2.22-.22,2.22-1.48V28.1c0-1.51,0-1.86-.32-2.16a5.37,5.37,0,0,0-1.51-.87v-.64A22,22,0,0,0,95,23.05l.26.13c-.13.77-.19,1.7-.23,2.35,1.16-1.16,2.68-2.48,4.35-2.48,1.19,0,1.83.68,1.83,1.54a1.9,1.9,0,0,1-1.67,1.93,1.32,1.32,0,0,1-.9-.45,6.65,6.65,0,0,0-.9-.83.72.72,0,0,0-.52-.2,3,3,0,0,0-1.61,1,2.68,2.68,0,0,0-.48,1.81v7.4c0,1.38.52,1.29,2.9,1.48v1Z"/><path class="cls-1" d="M115,25.24a7.93,7.93,0,0,1,1.9,5.21A7.74,7.74,0,0,1,114.7,36a7.15,7.15,0,0,1-10.08,0,7.84,7.84,0,0,1-2.12-5.5,7.34,7.34,0,0,1,3.15-6.21,7.26,7.26,0,0,1,4.16-1.29A6.72,6.72,0,0,1,115,25.24ZM112.64,35.7a9.45,9.45,0,0,0,1.12-5,8.57,8.57,0,0,0-1.38-5.12,3.69,3.69,0,0,0-2.9-1.51c-2.19,0-3.89,1.64-3.89,6A9,9,0,0,0,107,35.57,3.67,3.67,0,0,0,109.93,37,3,3,0,0,0,112.64,35.7Z"/><path class="cls-1" d="M118.15,23.43h6.95v1c-1.74.19-2.19.26-2,1.16.51,2.09,2,6.15,2.9,8.66.61-1.42,2.28-5.22,3.31-7.7a.55.55,0,0,0,0-.38c-.35-1.1-.58-1.42-1.12-1.55A9.11,9.11,0,0,0,127,24.4v-1h6.66v1c-1.54.13-1.93.29-1.93.64a5,5,0,0,0,.29,1.1c.84,2.41,2.22,6.21,2.9,8.11.87-2.22,2.57-6.79,3.12-8.46.19-.65.1-1-.42-1.1a12.32,12.32,0,0,0-2.09-.29v-1h6.24v1c-1.29.19-1.8.19-2.38,1.51-.93,2.09-3.89,9.5-4.83,12.11h-1c-.81-2.35-2.61-7.34-3.64-10.14-.77,1.73-3.57,8-4.38,10.1h-1c-.78-2.61-3.32-9.91-4.19-12.19-.45-1.16-.67-1.2-2.25-1.39Z"/><path class="cls-1" d="M151.22,36.47a4.68,4.68,0,0,1-3.48,1.58c-1.51,0-3.54-.68-3.54-3.8V25h-1.87V24.3a15.37,15.37,0,0,0,4.09-3.86h.84a27.86,27.86,0,0,0-.32,3h4.31a3,3,0,0,1-.19,1.58h-4.22v9.14a2,2,0,0,0,2,2.22,3.63,3.63,0,0,0,2.38-.8Z"/><path class="cls-1" d="M152.74,37.73v-1c1.67-.16,2-.32,2-1.22V19.38a7,7,0,0,0-.13-1.77c-.09-.26-.64-.81-1.9-1.13v-.8a20.81,20.81,0,0,0,4.73-1l.13.06c-.06.55-.16,1.81-.16,2.77v7.6a6.31,6.31,0,0,1,4.48-2.06A4.45,4.45,0,0,1,165,24.21a5.22,5.22,0,0,1,1.38,3.92v7.38c0,1,.19,1.15,2,1.25v1h-7.05v-1c.68-.06,1.26-.13,1.55-.19.77-.2.9-.36.9-3.29V27.94a3.3,3.3,0,0,0-.9-2.45,3,3,0,0,0-2.12-.73,4.14,4.14,0,0,0-2.68.86c-.54.58-.61.81-.61,2.19v7.7c0,1.09.49,1.06,2.22,1.25v1Z"/><path class="cls-1" d="M169.87,37.73v-1c2-.16,2.25-.19,2.25-1.25V28.07c0-1.71-.09-1.9-.42-2.19a6,6,0,0,0-1.35-.87V24.4a19.66,19.66,0,0,0,4.31-1.35l.2.16c0,.52-.07,1.45-.07,3v9.3c0,1,.16,1.13,2,1.29v1Zm3.31-21.34a1.77,1.77,0,0,1,1.68,1.86,1.69,1.69,0,0,1-1.71,1.81,1.74,1.74,0,0,1-1.74-1.81A1.81,1.81,0,0,1,173.18,16.39Z"/><path class="cls-1" d="M177.31,37.73v-1c1.48-.16,2-.22,2.86-1.22.65-.74,2.58-3.45,3.45-4.8-1.07-1.8-2.32-4-3.13-5.12-.64-.93-.83-1.06-2.63-1.22v-1h6.63v1a5.9,5.9,0,0,0-1,.16c-.36.1-.46.23-.23.68.39.77,1.45,2.51,2.06,3.6.74-1.06,1.74-2.48,2.25-3.41.26-.51.16-.74-.29-.84a11.24,11.24,0,0,0-1.38-.19v-1h5.66v1c-1.7.13-1.89.36-2.92,1.61-.52.68-1.71,2.22-2.74,3.67,1.22,1.9,2.64,4.31,3.77,6,.54.84,1,.9,2.44,1.06v1H185v-1a7.22,7.22,0,0,0,1.48-.19c.45-.1.48-.36.26-.74-.68-1.19-1.77-3-2.51-4.16-.77,1.13-2.13,3.09-2.64,4-.19.35-.19.67.26.8a7.49,7.49,0,0,0,1.57.26v1Z"/><path class="cls-1" d="M218.26,23.34c-.58-1.48-1.61-3.8-3.31-4.83a6.18,6.18,0,0,0-3.35-.9c-4.64,0-7.37,3.54-7.37,9.49,0,5.41,2.48,9.89,7.88,9.89a5.9,5.9,0,0,0,2.06-.36c1.8-.71,3.12-2.41,4.44-4.54l.87.45c-.67,1.32-1.73,3.67-2.35,5.06a12.19,12.19,0,0,0-1.51.25,18.7,18.7,0,0,1-3.64.39c-6.56,0-11.2-4-11.2-11a10.63,10.63,0,0,1,3.87-8.46,11.23,11.23,0,0,1,7.11-2.32,12.2,12.2,0,0,1,4.83.93,5.42,5.42,0,0,0,1.19-.67h.64a54.09,54.09,0,0,0,.74,6.37Z"/><path class="cls-1" d="M235,36.66a4.65,4.65,0,0,1-3,1.55c-.78,0-1.58-.42-2-1.9-1.49,1.16-2.77,1.9-4.09,1.9a3.36,3.36,0,0,1-3.06-3.51c0-1.55.84-2.25,2.28-3s2.61-1.23,5-2.22c0-1.55,0-2.19,0-2.64a2.85,2.85,0,0,0-2.7-2.26,4.76,4.76,0,0,0-2,.94c-.35.26-.35.35-.35.45a.78.78,0,0,0,.1.35,2.23,2.23,0,0,1,.45,1.22A1.82,1.82,0,0,1,224,29a1.57,1.57,0,0,1-1.44-1.64c0-.35.16-1,1.41-1.9,2.42-1.76,4.22-2.44,4.83-2.44a3.81,3.81,0,0,1,3.35,2,4.93,4.93,0,0,1,.54,2.84c0,1.38-.09,6.05-.09,7.88,0,.39.26.61.77.61a3.45,3.45,0,0,0,1.64-.58Zm-8.11-4.73A2.23,2.23,0,0,0,225.61,34a2.77,2.77,0,0,0,.77,1.94,1.84,1.84,0,0,0,1.32.51,3,3,0,0,0,1.81-.64,1.56,1.56,0,0,0,.58-1.32c.06-1.29.09-3.38.09-4.12A29.54,29.54,0,0,0,226.93,31.93Z"/><path class="cls-1" d="M235.92,45.19v-1c2.25-.1,2.38-.36,2.48-1.77,0-.74.06-3.13.06-4.61V28a4.25,4.25,0,0,0-.22-1.9,3.62,3.62,0,0,0-1.74-1.07v-.64a16.05,16.05,0,0,0,4.44-1.54l.29.19c0,.48-.16,1.29-.16,1.87a7.08,7.08,0,0,1,4.63-1.77,5.59,5.59,0,0,1,3.83,1.61,7.2,7.2,0,0,1,2.06,5.34,7.92,7.92,0,0,1-2.28,5.79A7.53,7.53,0,0,1,244,38.11a10.46,10.46,0,0,1-2.9-.42c0,1.39,0,3.51,0,4.8s.2,1.61,2.83,1.74v1Zm5.18-11.88a3.78,3.78,0,0,0,.29,2A3.9,3.9,0,0,0,244.54,37a3.46,3.46,0,0,0,2.84-1.61,8.44,8.44,0,0,0,1.15-4.67,7.44,7.44,0,0,0-1.09-4.41,3.61,3.61,0,0,0-3-1.61,4.05,4.05,0,0,0-2.19.52c-1,.58-1.16,1.12-1.16,3Z"/><path class="cls-1" d="M253.63,37.73v-1c2-.16,2.25-.19,2.25-1.25V28.07c0-1.71-.09-1.9-.42-2.19a6,6,0,0,0-1.35-.87V24.4a19.59,19.59,0,0,0,4.32-1.35l.19.16c0,.52-.07,1.45-.07,3v9.3c0,1,.17,1.13,2,1.29v1Zm3.31-21.34a1.77,1.77,0,0,1,1.68,1.86,1.69,1.69,0,0,1-1.71,1.81,1.74,1.74,0,0,1-1.74-1.81A1.81,1.81,0,0,1,256.94,16.39Z"/><path class="cls-1" d="M271.08,36.47a4.68,4.68,0,0,1-3.48,1.58c-1.51,0-3.54-.68-3.54-3.8V25H262.2V24.3a15.49,15.49,0,0,0,4.08-3.86h.84a27.86,27.86,0,0,0-.32,3h4.31a3,3,0,0,1-.19,1.58H266.7v9.14a2,2,0,0,0,2,2.22,3.63,3.63,0,0,0,2.38-.8Z"/><path class="cls-1" d="M285.6,36.66a4.65,4.65,0,0,1-3,1.55c-.78,0-1.58-.42-2-1.9-1.48,1.16-2.76,1.9-4.08,1.9a3.36,3.36,0,0,1-3.06-3.51c0-1.55.83-2.25,2.28-3s2.61-1.23,5-2.22c0-1.55,0-2.19,0-2.64a2.86,2.86,0,0,0-2.7-2.26,4.71,4.71,0,0,0-2,.94c-.35.26-.35.35-.35.45a.78.78,0,0,0,.1.35,2.23,2.23,0,0,1,.45,1.22A1.83,1.83,0,0,1,274.59,29a1.58,1.58,0,0,1-1.45-1.64c0-.35.16-1,1.42-1.9,2.42-1.76,4.22-2.44,4.83-2.44a3.81,3.81,0,0,1,3.35,2,5,5,0,0,1,.54,2.84c0,1.38-.09,6.05-.09,7.88,0,.39.25.61.77.61a3.45,3.45,0,0,0,1.64-.58Zm-8.11-4.73A2.21,2.21,0,0,0,276.17,34a2.77,2.77,0,0,0,.77,1.94,1.83,1.83,0,0,0,1.32.51,3,3,0,0,0,1.81-.64,1.53,1.53,0,0,0,.57-1.32c.07-1.29.1-3.38.1-4.12A29.54,29.54,0,0,0,277.49,31.93Z"/><path class="cls-1" d="M287,37.73v-1c1.87-.13,2-.42,2-1.48V19.41a5.7,5.7,0,0,0-.13-1.74,2.74,2.74,0,0,0-2-1.19v-.8a21,21,0,0,0,4.8-1l.13.1c-.07.51-.16,2-.16,3V35.34c0,1,.16,1.32,2.06,1.45v.94Z"/></g></g></svg>