<svg xmlns="http://www.w3.org/2000/svg" viewBox="0 0 293.86 56.91"><defs><style>.cls-1{fill:#fff;}</style></defs><title>img_logo</title><g id="レイヤー_2" data-name="レイヤー 2"><g id="レイヤー_1-2" data-name="レイヤー 1"><path class="cls-1" d="M0,28.46,25.42,53.87l3,3V28.46H15.53c4.79,1.3,9.89,3.28,9.89,14.31v7L4.09,28.46,25.42,7.13V26.24h3V0l-3,3Z"/><path class="cls-1" d="M33.45,28.46V7.11L52.59,26.24h4.09L33.45,3l-3-3V56.91l3-3L55.72,31.63l3.17-3.17Zm0,21.35V31.63H51.63Z"/><path class="cls-1" d="M88,29.11a7.16,7.16,0,0,0-1.32.16,1.24,1.24,0,0,0-1,1.42v4.86c0,.42.23.55,1.1.74V37a25.18,25.18,0,0,1-7.44,1.29c-3.61,0-6.54-1.1-8.5-3.16A10.9,10.9,0,0,1,68,27.21a10.47,10.47,0,0,1,4.12-8.59,11.13,11.13,0,0,1,7-2.16,13.37,13.37,0,0,1,5.06.93,7.72,7.72,0,0,0,1-.64h.7a45.63,45.63,0,0,0,.81,6.37l-.9.26c-.94-2.28-1.84-4-3.54-5a7.44,7.44,0,0,0-3.45-.83c-3.77,0-7.41,2.34-7.41,9.49A11.27,11.27,0,0,0,74,34.78a7.14,7.14,0,0,0,5.44,2.38,5.55,5.55,0,0,0,2.28-.38,1.4,1.4,0,0,0,.91-1.52V30.79a1.28,1.28,0,0,0-1.13-1.42,12.31,12.31,0,0,0-2.22-.29v-1H88Z"/><path class="cls-1" d="M90.3,37.74v-1c2-.13,2.23-.23,2.23-1.48V28.12c0-1.52,0-1.87-.33-2.16a4.92,4.92,0,0,0-1.51-.87v-.65A21.92,21.92,0,0,0,95,23.06l.25.13c-.12.77-.19,1.71-.22,2.35,1.16-1.16,2.67-2.48,4.35-2.48,1.19,0,1.83.68,1.83,1.54a1.91,1.91,0,0,1-1.67,1.94,1.35,1.35,0,0,1-.9-.45,6.19,6.19,0,0,0-.91-.84.73.73,0,0,0-.51-.19,3,3,0,0,0-1.61,1,2.64,2.64,0,0,0-.48,1.8V35.3c0,1.38.51,1.28,2.89,1.48v1Z"/><path class="cls-1" d="M115,25.25a8,8,0,0,1,1.9,5.21A7.77,7.77,0,0,1,114.75,36a7.15,7.15,0,0,1-10.08,0,7.87,7.87,0,0,1-2.12-5.51,7.3,7.3,0,0,1,7.31-7.5A6.76,6.76,0,0,1,115,25.25Zm-2.32,10.46a9.42,9.42,0,0,0,1.13-5,8.5,8.5,0,0,0-1.39-5.12,3.69,3.69,0,0,0-2.9-1.51c-2.18,0-3.89,1.64-3.89,6a9.05,9.05,0,0,0,1.45,5.48A3.67,3.67,0,0,0,110,37,3,3,0,0,0,112.69,35.71Z"/><path class="cls-1" d="M118.21,23.45h7v1c-1.74.19-2.19.26-2,1.16.51,2.09,2,6.15,2.9,8.66.61-1.41,2.28-5.21,3.31-7.69a.49.49,0,0,0,0-.39c-.35-1.09-.57-1.42-1.12-1.55a8.9,8.9,0,0,0-1.29-.19v-1h6.67v1c-1.55.13-1.94.29-1.94.65a5.1,5.1,0,0,0,.29,1.09c.84,2.42,2.22,6.22,2.9,8.12.87-2.23,2.58-6.8,3.12-8.47.2-.65.1-1-.41-1.1a13.78,13.78,0,0,0-2.1-.29v-1h6.25v1c-1.29.19-1.8.19-2.38,1.52-.94,2.09-3.9,9.5-4.83,12.1h-1c-.8-2.35-2.61-7.34-3.64-10.14-.77,1.74-3.57,8-4.38,10.11h-1c-.78-2.61-3.32-9.92-4.19-12.2-.45-1.16-.68-1.2-2.25-1.39Z"/><path class="cls-1" d="M151.29,36.49a4.72,4.72,0,0,1-3.48,1.58c-1.51,0-3.54-.68-3.54-3.8V25H142.4v-.7a15.59,15.59,0,0,0,4.09-3.87h.84a27.76,27.76,0,0,0-.32,3h4.31a3,3,0,0,1-.19,1.57h-4.22v9.15a2,2,0,0,0,2,2.22,3.63,3.63,0,0,0,2.38-.8Z"/><path class="cls-1" d="M152.81,37.74v-1c1.67-.16,2-.32,2-1.23V19.39a7.83,7.83,0,0,0-.12-1.77c-.1-.26-.65-.81-1.9-1.13v-.81a20.28,20.28,0,0,0,4.73-1l.13.06a26.94,26.94,0,0,0-.16,2.77v7.6A6.3,6.3,0,0,1,162,23.06,4.41,4.41,0,0,1,165,24.22a5.2,5.2,0,0,1,1.39,3.93v7.37c0,1,.19,1.16,2,1.26v1h-7v-1c.68-.07,1.26-.13,1.55-.2.77-.19.9-.35.9-3.28V28a3.29,3.29,0,0,0-.9-2.45,3,3,0,0,0-2.13-.74,4.1,4.1,0,0,0-2.67.86c-.55.58-.61.81-.61,2.19v7.7c0,1.1.48,1.06,2.22,1.26v1Z"/><path class="cls-1" d="M170,37.74v-1c2-.16,2.25-.2,2.25-1.26V28.08c0-1.7-.09-1.9-.42-2.19a6,6,0,0,0-1.35-.87v-.61a19.07,19.07,0,0,0,4.32-1.35l.19.16c0,.52-.06,1.45-.06,3v9.31c0,1,.16,1.13,2,1.29v1Zm3.32-21.35a1.77,1.77,0,0,1,1.67,1.87,1.69,1.69,0,0,1-1.71,1.81,1.74,1.74,0,0,1-1.74-1.81A1.82,1.82,0,0,1,173.27,16.39Z"/><path class="cls-1" d="M177.39,37.74v-1c1.48-.16,2-.23,2.87-1.23.64-.74,2.57-3.44,3.44-4.79-1.06-1.81-2.32-4-3.12-5.13-.64-.93-.84-1.06-2.64-1.22v-1h6.63v1a6.24,6.24,0,0,0-1,.16c-.35.1-.45.23-.22.68.38.77,1.45,2.51,2.06,3.6.74-1.06,1.74-2.47,2.25-3.41.26-.51.16-.74-.29-.84a13.59,13.59,0,0,0-1.38-.19v-1h5.67v1c-1.71.13-1.9.36-2.94,1.61-.51.68-1.7,2.22-2.73,3.67,1.22,1.9,2.64,4.32,3.77,6,.54.84,1,.91,2.44,1.07v1h-7.08v-1a8,8,0,0,0,1.48-.2c.45-.09.48-.35.26-.74-.68-1.19-1.77-3-2.52-4.15-.77,1.13-2.12,3.09-2.64,4-.19.36-.19.68.26.81a8.48,8.48,0,0,0,1.58.26v1Z"/><path class="cls-1" d="M218.36,23.35c-.58-1.48-1.61-3.8-3.31-4.83a6.15,6.15,0,0,0-3.35-.9c-4.64,0-7.38,3.54-7.38,9.5,0,5.41,2.48,9.88,7.89,9.88a6.14,6.14,0,0,0,2.06-.35c1.81-.71,3.13-2.42,4.45-4.54l.87.45c-.68,1.32-1.74,3.67-2.35,5a12.36,12.36,0,0,0-1.52.26,18.7,18.7,0,0,1-3.64.39c-6.56,0-11.2-4-11.2-11a10.63,10.63,0,0,1,3.86-8.46,11.24,11.24,0,0,1,7.12-2.32,12,12,0,0,1,4.83.93,4.67,4.67,0,0,0,1.19-.68h.65a54,54,0,0,0,.74,6.38Z"/><path class="cls-1" d="M235.15,36.68a4.65,4.65,0,0,1-3,1.55c-.78,0-1.58-.42-2-1.9-1.48,1.16-2.77,1.9-4.09,1.9a3.37,3.37,0,0,1-3-3.51c0-1.55.83-2.26,2.28-3s2.61-1.22,5-2.22c0-1.54,0-2.19,0-2.64a2.87,2.87,0,0,0-2.7-2.26,4.83,4.83,0,0,0-2,.94c-.35.26-.35.35-.35.45a.86.86,0,0,0,.09.35,2.15,2.15,0,0,1,.45,1.23,1.82,1.82,0,0,1-1.67,1.48,1.58,1.58,0,0,1-1.45-1.64c0-.36.16-1,1.42-1.9,2.41-1.77,4.22-2.45,4.83-2.45a3.8,3.8,0,0,1,3.35,2,4.91,4.91,0,0,1,.54,2.83c0,1.38-.09,6-.09,7.89,0,.38.26.61.77.61a3.39,3.39,0,0,0,1.64-.58ZM227,32A2.19,2.19,0,0,0,225.72,34a2.73,2.73,0,0,0,.77,1.93,1.79,1.79,0,0,0,1.32.52,2.91,2.91,0,0,0,1.8-.65,1.5,1.5,0,0,0,.58-1.32c.07-1.28.1-3.38.1-4.12A29.31,29.31,0,0,0,227,32Z"/><path class="cls-1" d="M236,45.21v-1c2.25-.1,2.38-.36,2.48-1.77,0-.74.06-3.13.06-4.61V28.05a4.12,4.12,0,0,0-.22-1.9,3.54,3.54,0,0,0-1.74-1.06v-.65a16.05,16.05,0,0,0,4.44-1.54l.29.19c0,.48-.16,1.29-.16,1.87a7.12,7.12,0,0,1,4.64-1.77,5.59,5.59,0,0,1,3.83,1.61,7.21,7.21,0,0,1,2.06,5.34,7.94,7.94,0,0,1-2.28,5.8,7.58,7.58,0,0,1-5.32,2.19,10.46,10.46,0,0,1-2.9-.42c0,1.39,0,3.51,0,4.8s.19,1.61,2.83,1.74v1Zm5.18-11.88a3.84,3.84,0,0,0,.29,2A3.91,3.91,0,0,0,244.66,37a3.47,3.47,0,0,0,2.83-1.61,8.41,8.41,0,0,0,1.16-4.67,7.46,7.46,0,0,0-1.09-4.42,3.62,3.62,0,0,0-3-1.61,4.08,4.08,0,0,0-2.19.52c-1,.58-1.16,1.13-1.16,3Z"/><path class="cls-1" d="M253.75,37.74v-1c2-.16,2.25-.2,2.25-1.26V28.08c0-1.7-.09-1.9-.41-2.19a6.36,6.36,0,0,0-1.36-.87v-.61a19.07,19.07,0,0,0,4.32-1.35l.19.16c0,.52-.06,1.45-.06,3v9.31c0,1,.16,1.13,2,1.29v1Zm3.32-21.35a1.77,1.77,0,0,1,1.67,1.87A1.69,1.69,0,0,1,257,20.07a1.74,1.74,0,0,1-1.73-1.81A1.81,1.81,0,0,1,257.07,16.39Z"/><path class="cls-1" d="M271.21,36.49a4.72,4.72,0,0,1-3.48,1.58c-1.51,0-3.54-.68-3.54-3.8V25h-1.87v-.7a15.59,15.59,0,0,0,4.09-3.87h.84a27.76,27.76,0,0,0-.32,3h4.31a3,3,0,0,1-.19,1.57h-4.22v9.15a2,2,0,0,0,2,2.22,3.63,3.63,0,0,0,2.38-.8Z"/><path class="cls-1" d="M285.74,36.68a4.67,4.67,0,0,1-3,1.55c-.77,0-1.58-.42-2-1.9-1.48,1.16-2.77,1.9-4.09,1.9a3.37,3.37,0,0,1-3.06-3.51c0-1.55.84-2.26,2.29-3s2.6-1.22,5-2.22a24.31,24.31,0,0,0,0-2.64,2.86,2.86,0,0,0-2.7-2.26,4.89,4.89,0,0,0-2,.94c-.35.26-.35.35-.35.45a.75.75,0,0,0,.1.35,2.23,2.23,0,0,1,.45,1.23,1.82,1.82,0,0,1-1.68,1.48,1.59,1.59,0,0,1-1.45-1.64c0-.36.16-1,1.42-1.9,2.42-1.77,4.22-2.45,4.83-2.45a3.8,3.8,0,0,1,3.35,2,4.92,4.92,0,0,1,.55,2.83c0,1.38-.1,6-.1,7.89,0,.38.26.61.77.61a3.45,3.45,0,0,0,1.65-.58ZM277.62,32A2.21,2.21,0,0,0,276.3,34a2.73,2.73,0,0,0,.77,1.93,1.82,1.82,0,0,0,1.32.52,2.92,2.92,0,0,0,1.81-.65,1.52,1.52,0,0,0,.58-1.32c.06-1.28.09-3.38.09-4.12A29.31,29.31,0,0,0,277.62,32Z"/><path class="cls-1" d="M287.13,37.74v-1c1.87-.13,2-.42,2-1.48V19.42a5.88,5.88,0,0,0-.12-1.74,2.74,2.74,0,0,0-2-1.19v-.81a20.53,20.53,0,0,0,4.8-1l.13.09c-.07.52-.16,2-.16,3V35.36c0,1,.16,1.32,2.06,1.45v.93Z"/></g></g></svg>